<?xml version="1.0" encoding="UTF-8"?>
<svg id="Layer_1" data-name="Layer 1" xmlns="http://www.w3.org/2000/svg" viewBox="0 0 841.89 595.28">
  <defs>
    <style>
      .cls-1 {
        fill: #223b57;
      }
    </style>
  </defs>
  <g>
    <polygon class="cls-1" points="433.71 331.36 423.04 342.06 423.04 342.06 418.09 337.1 412.38 331.36 412.37 331.36 401.72 320.67 401.72 320.67 399.62 318.57 391.05 309.97 391.06 309.97 399.62 301.38 401.72 299.27 401.72 299.27 412.38 309.97 418.09 315.7 423.04 320.66 423.04 320.67 433.71 331.36"/>
    <polygon class="cls-1" points="455.03 224.39 455.03 224.39 444.36 235.09 436.56 227.26 433.71 224.39 433.7 224.39 423.04 213.7 423.04 213.7 423.04 213.7 418.09 208.73 412.38 203 418.09 197.27 423.04 192.3 433.71 203 433.71 203 436.56 205.87 444.37 213.7 455.03 224.39"/>
    <polygon class="cls-1" points="476.35 245.79 473.5 248.66 465.7 256.48 465.69 256.48 465.69 256.49 455.03 267.18 455.03 267.18 455.03 267.19 444.37 277.88 436.56 270.05 433.71 267.18 436.56 264.32 444.37 256.49 444.37 256.48 455.03 245.79 455.03 245.79 455.03 245.79 465.7 235.09 473.5 242.92 476.35 245.79"/>
    <polygon class="cls-1" points="497.68 267.18 491.97 272.91 487.02 277.88 487.02 277.88 487.02 277.88 476.35 288.58 473.5 291.44 465.7 299.27 455.03 288.58 455.03 288.57 465.69 277.88 473.5 270.05 476.35 267.18 487.02 256.48 487.02 256.48 491.97 261.45 497.68 267.18"/>
    <polygon class="cls-1" points="455.03 309.97 455.03 309.98 444.37 320.67 436.56 312.84 433.71 309.97 423.04 299.27 418.09 294.31 412.38 288.58 418.09 282.85 423.04 277.88 433.71 288.58 436.56 291.44 444.36 299.27 444.37 299.27 455.03 309.97"/>
    <polygon class="cls-1" points="391.05 245.79 391.05 245.79 381.16 255.72 380.39 256.48 369.73 267.18 369.73 267.18 362.69 274.25 359.07 277.88 359.06 277.88 348.4 267.18 359.06 256.48 359.07 256.48 362.69 252.85 369.73 245.79 380.39 235.09 381.16 235.86 391.05 245.79"/>
    <polygon class="cls-1" points="412.38 267.18 412.37 267.18 401.72 277.88 399.62 279.98 391.05 288.57 391.05 288.58 381.16 298.5 380.39 299.27 369.73 288.58 380.39 277.88 381.16 277.11 391.05 267.18 399.62 258.58 401.72 256.48 412.38 267.18"/>
    <polygon class="cls-1" points="433.7 245.79 423.04 256.48 418.09 251.52 412.38 245.79 401.72 235.09 401.72 235.09 401.72 235.09 399.62 232.99 391.05 224.39 391.05 224.39 399.62 215.8 401.72 213.7 412.38 224.39 418.09 230.13 423.04 235.09 433.7 245.79"/>
  </g>
  <g>
    <g>
      <path class="cls-1" d="M349.95,426.08l2.86-6.2h3.1l-4.51,8.76v4.99h-2.88v-4.99l-4.51-8.76h3.11l2.84,6.2Z"/>
      <path class="cls-1" d="M368.19,427.07c0,1.35-.24,2.54-.72,3.56-.48,1.02-1.16,1.81-2.05,2.36-.89.55-1.91.83-3.06.83s-2.16-.27-3.05-.82-1.59-1.33-2.08-2.35-.74-2.19-.75-3.51v-.68c0-1.35.24-2.54.73-3.57s1.18-1.82,2.07-2.37c.89-.55,1.91-.83,3.05-.83s2.16.28,3.06.83c.89.55,1.58,1.34,2.07,2.37.49,1.03.73,2.22.73,3.57v.61ZM365.32,426.45c0-1.44-.26-2.54-.77-3.29s-1.25-1.12-2.21-1.12-1.68.37-2.2,1.11c-.52.74-.78,1.82-.78,3.25v.67c0,1.4.26,2.49.77,3.27.52.77,1.26,1.16,2.23,1.16s1.68-.37,2.19-1.12.77-1.83.77-3.26v-.67Z"/>
      <path class="cls-1" d="M380.65,419.89v9.06c0,1.5-.47,2.69-1.41,3.57-.94.88-2.23,1.31-3.86,1.31s-2.88-.42-3.82-1.27-1.43-2.02-1.45-3.5v-9.16h2.83v9.08c0,.9.22,1.56.65,1.97.43.41,1.03.62,1.79.62,1.59,0,2.4-.84,2.43-2.51v-9.15h2.84Z"/>
      <path class="cls-1" d="M388.07,428.6h-2.26v5.03h-2.83v-13.75h5.11c1.62,0,2.88.36,3.76,1.09.88.72,1.32,1.75,1.32,3.07,0,.94-.2,1.72-.61,2.35-.41.63-1.02,1.13-1.85,1.5l2.97,5.62v.13h-3.04l-2.58-5.03ZM385.81,426.31h2.29c.71,0,1.26-.18,1.65-.54.39-.36.59-.86.59-1.5s-.18-1.16-.55-1.53c-.37-.37-.93-.56-1.7-.56h-2.28v4.13Z"/>
      <path class="cls-1" d="M408.41,428.02h-5.44v5.62h-2.83v-13.75h8.95v2.29h-6.12v3.55h5.44v2.29Z"/>
      <path class="cls-1" d="M413.74,433.64h-2.83v-13.75h2.83v13.75Z"/>
      <path class="cls-1" d="M421.46,428.6h-2.26v5.03h-2.83v-13.75h5.11c1.62,0,2.88.36,3.76,1.09.88.72,1.32,1.75,1.32,3.07,0,.94-.2,1.72-.61,2.35-.41.63-1.02,1.13-1.85,1.5l2.97,5.62v.13h-3.04l-2.58-5.03ZM419.2,426.31h2.29c.71,0,1.26-.18,1.65-.54.39-.36.59-.86.59-1.5s-.18-1.16-.55-1.53c-.37-.37-.93-.56-1.7-.56h-2.28v4.13Z"/>
      <path class="cls-1" d="M435.84,430.03c0-.54-.19-.95-.57-1.23s-1.06-.59-2.04-.91c-.98-.32-1.76-.63-2.33-.94-1.56-.84-2.34-1.98-2.34-3.41,0-.74.21-1.41.63-1.99.42-.58,1.02-1.04,1.8-1.36.78-.33,1.66-.49,2.64-.49s1.86.18,2.63.53c.77.36,1.36.86,1.79,1.51s.64,1.38.64,2.21h-2.83c0-.63-.2-1.12-.59-1.47-.4-.35-.95-.52-1.67-.52s-1.23.15-1.62.44c-.38.29-.58.68-.58,1.16,0,.45.23.82.68,1.12s1.11.59,1.99.85c1.61.49,2.79,1.09,3.52,1.8.74.72,1.11,1.61,1.11,2.68,0,1.19-.45,2.12-1.35,2.8s-2.11,1.01-3.64,1.01c-1.06,0-2.02-.19-2.89-.58-.87-.39-1.53-.92-1.99-1.59-.46-.67-.69-1.45-.69-2.34h2.84c0,1.52.91,2.28,2.72,2.28.67,0,1.2-.14,1.58-.41.38-.27.57-.66.57-1.15Z"/>
      <path class="cls-1" d="M450.95,422.18h-4.21v11.46h-2.83v-11.46h-4.16v-2.29h11.2v2.29Z"/>
      <path class="cls-1" d="M463.94,430.03c0-.54-.19-.95-.57-1.23s-1.06-.59-2.04-.91c-.98-.32-1.76-.63-2.33-.94-1.56-.84-2.34-1.98-2.34-3.41,0-.74.21-1.41.63-1.99.42-.58,1.02-1.04,1.8-1.36.78-.33,1.66-.49,2.64-.49s1.86.18,2.63.53c.77.36,1.36.86,1.79,1.51s.64,1.38.64,2.21h-2.83c0-.63-.2-1.12-.59-1.47-.4-.35-.95-.52-1.67-.52s-1.23.15-1.62.44c-.38.29-.58.68-.58,1.16,0,.45.23.82.68,1.12s1.11.59,1.99.85c1.61.49,2.79,1.09,3.52,1.8.74.72,1.11,1.61,1.11,2.68,0,1.19-.45,2.12-1.35,2.8s-2.11,1.01-3.64,1.01c-1.06,0-2.02-.19-2.89-.58-.87-.39-1.53-.92-1.99-1.59-.46-.67-.68-1.45-.68-2.34h2.84c0,1.52.91,2.28,2.72,2.28.67,0,1.2-.14,1.58-.41.38-.27.57-.66.57-1.15Z"/>
      <path class="cls-1" d="M479.05,422.18h-4.21v11.46h-2.83v-11.46h-4.16v-2.29h11.2v2.29Z"/>
      <path class="cls-1" d="M488.94,427.68h-5.44v3.68h6.38v2.28h-9.22v-13.75h9.2v2.29h-6.37v3.28h5.44v2.22Z"/>
      <path class="cls-1" d="M494.38,428.79v4.84h-2.83v-13.75h5.36c1.03,0,1.94.19,2.72.57.78.38,1.39.92,1.81,1.61.42.7.63,1.49.63,2.38,0,1.35-.46,2.41-1.38,3.19-.92.78-2.2,1.17-3.83,1.17h-2.48ZM494.38,426.5h2.53c.75,0,1.32-.18,1.71-.53s.59-.86.59-1.51-.2-1.22-.59-1.63c-.4-.42-.94-.63-1.64-.64h-2.6v4.32Z"/>
    </g>
    <rect class="cls-1" x="516.17" y="424.23" width="66.62" height="5.06" rx="2.53" ry="2.53"/>
    <rect class="cls-1" x="263.29" y="424.23" width="66.62" height="5.06" rx="2.53" ry="2.53"/>
  </g>
  <g>
    <path class="cls-1" d="M218.13,384.72c0-3.27.6-6.31,1.81-9.14,1.21-2.82,2.88-5.28,5.02-7.38,2.14-2.1,4.7-3.75,7.68-4.93,2.98-1.19,6.26-1.78,9.84-1.78s6.81.59,9.81,1.78c3,1.19,5.58,2.83,7.74,4.93s3.84,4.56,5.05,7.38c1.21,2.82,1.81,5.87,1.81,9.14s-.6,6.32-1.81,9.14c-1.21,2.82-2.89,5.28-5.05,7.38-2.16,2.1-4.74,3.75-7.74,4.93-3,1.19-6.27,1.78-9.81,1.78s-6.86-.59-9.84-1.78-5.54-2.83-7.68-4.93c-2.14-2.1-3.81-4.56-5.02-7.38-1.21-2.82-1.81-5.87-1.81-9.14ZM230.09,384.72c0,1.75.33,3.37.99,4.85.66,1.48,1.56,2.76,2.69,3.85,1.13,1.09,2.44,1.94,3.94,2.54,1.5.6,3.08.91,4.76.91s3.26-.3,4.76-.91c1.5-.6,2.82-1.45,3.97-2.54,1.15-1.09,2.05-2.37,2.71-3.85.66-1.48.99-3.09.99-4.85s-.33-3.37-.99-4.85c-.66-1.48-1.57-2.76-2.71-3.85-1.15-1.09-2.47-1.94-3.97-2.54-1.5-.6-3.08-.91-4.76-.91s-3.26.3-4.76.91c-1.5.6-2.81,1.45-3.94,2.54-1.13,1.09-2.02,2.37-2.69,3.85-.66,1.48-.99,3.09-.99,4.85Z"/>
    <path class="cls-1" d="M310.72,406.73h-14.24l-10.92-16.93v16.93h-11.44v-44.02h17.81c2.45,0,4.59.36,6.42,1.08,1.83.72,3.34,1.7,4.52,2.95,1.19,1.25,2.08,2.69,2.69,4.32.6,1.63.9,3.39.9,5.25,0,3.35-.81,6.06-2.42,8.14-1.62,2.08-4,3.49-7.15,4.23l13.84,18.04ZM285.56,382.38h2.16c2.26,0,3.99-.47,5.2-1.4,1.21-.93,1.81-2.28,1.81-4.03s-.6-3.09-1.81-4.03c-1.21-.93-2.94-1.4-5.2-1.4h-2.16v10.86Z"/>
    <path class="cls-1" d="M326.95,362.71v44.02h-11.44v-44.02h11.44Z"/>
    <path class="cls-1" d="M357.6,382.09h22.71c0,2.33-.1,4.46-.29,6.36-.19,1.91-.58,3.68-1.17,5.31-.82,2.3-1.93,4.33-3.33,6.1-1.4,1.77-3.05,3.25-4.93,4.44-1.89,1.19-3.96,2.09-6.22,2.71-2.26.62-4.63.93-7.12.93-3.43,0-6.55-.56-9.37-1.69-2.82-1.13-5.25-2.71-7.27-4.76-2.02-2.04-3.6-4.5-4.73-7.36-1.13-2.86-1.69-6.02-1.69-9.49s.55-6.57,1.66-9.43c1.11-2.86,2.69-5.3,4.73-7.33,2.04-2.02,4.5-3.6,7.39-4.73,2.88-1.13,6.09-1.69,9.63-1.69,4.59,0,8.62.99,12.08,2.98,3.46,1.98,6.21,5.06,8.23,9.22l-10.86,4.5c-1.01-2.41-2.33-4.15-3.94-5.2-1.62-1.05-3.45-1.58-5.52-1.58-1.71,0-3.27.32-4.67.96-1.4.64-2.6,1.56-3.59,2.74-.99,1.19-1.77,2.62-2.33,4.29-.56,1.67-.85,3.54-.85,5.6,0,1.87.24,3.6.73,5.2.49,1.6,1.22,2.98,2.19,4.14.97,1.17,2.18,2.07,3.62,2.71,1.44.64,3.11.96,5.02.96,1.13,0,2.22-.12,3.27-.38,1.05-.25,1.99-.66,2.83-1.23.84-.56,1.53-1.29,2.07-2.19.54-.9.91-1.99,1.11-3.27h-9.4v-8.87Z"/>
    <path class="cls-1" d="M398.99,362.71v44.02h-11.44v-44.02h11.44Z"/>
    <path class="cls-1" d="M408.21,406.73v-44.02h11.44l21.13,26.91v-26.91h11.38v44.02h-11.38l-21.13-26.91v26.91h-11.44Z"/>
    <path class="cls-1" d="M497.94,372.4v34.33h-11.44v-34.33h-9.4v-9.69h30.24v9.69h-9.4Z"/>
    <path class="cls-1" d="M523.86,362.71v44.02h-11.44v-44.02h11.44Z"/>
    <path class="cls-1" d="M544.53,362.71v34.33h13.72v9.69h-25.16v-44.02h11.44Z"/>
    <path class="cls-1" d="M589.19,372.4h-13.6v7.36h12.84v9.69h-12.84v7.59h13.6v9.69h-25.04v-44.02h25.04v9.69Z"/>
    <path class="cls-1" d="M621.59,373.98c-1.25-1.01-2.49-1.76-3.74-2.25-1.25-.49-2.45-.73-3.62-.73-1.48,0-2.69.35-3.62,1.05-.93.7-1.4,1.62-1.4,2.74,0,.78.23,1.42.7,1.93s1.08.94,1.84,1.31c.76.37,1.62.69,2.57.96.95.27,1.9.57,2.83.88,3.74,1.25,6.47,2.91,8.2,4.99,1.73,2.08,2.6,4.8,2.6,8.14,0,2.26-.38,4.3-1.14,6.13-.76,1.83-1.87,3.4-3.33,4.7-1.46,1.3-3.25,2.32-5.37,3.04-2.12.72-4.53,1.08-7.21,1.08-5.57,0-10.72-1.65-15.47-4.96l4.9-9.22c1.71,1.52,3.41,2.65,5.08,3.39,1.67.74,3.33,1.11,4.96,1.11,1.87,0,3.26-.43,4.17-1.29.91-.86,1.37-1.83,1.37-2.92,0-.66-.12-1.23-.35-1.72-.23-.49-.62-.93-1.17-1.34-.54-.41-1.25-.79-2.13-1.14-.88-.35-1.94-.74-3.18-1.17-1.48-.47-2.93-.98-4.35-1.55-1.42-.56-2.69-1.31-3.79-2.25-1.11-.93-2.01-2.11-2.69-3.53-.68-1.42-1.02-3.22-1.02-5.4s.36-4.15,1.08-5.93c.72-1.77,1.73-3.29,3.04-4.55,1.3-1.26,2.9-2.25,4.79-2.95s4-1.05,6.33-1.05c2.18,0,4.46.3,6.83.9,2.37.6,4.65,1.49,6.83,2.66l-4.55,8.93Z"/>
  </g>
</svg>